<mxfile host="app.diagrams.net" modified="2024-02-08T17:58:03.023Z" agent="Mozilla/5.0 (Macintosh; Intel Mac OS X 10_15_7) AppleWebKit/537.36 (KHTML, like Gecko) Chrome/121.0.0.0 Safari/537.36" version="23.1.2" etag="rOhppm7jBPGATWYdp4xu" type="github">
  <diagram name="Страница — 1" id="fjByWUU_8V7xH7QUSBli">
    <mxGraphModel>
      <root>
        <mxCell id="0" />
        <mxCell id="1" parent="0" />
      </root>
    </mxGraphModel>
  </diagram>
</mxfile>
